
<svg xmlns="http://www.w3.org/2000/svg" version="1.1" xmlns:xlink="http://www.w3.org/1999/xlink" preserveAspectRatio="none" x="0px" y="0px" width="630px" height="250px" viewBox="0 0 630 250">
<defs>
<g id="Layer2_0_FILL">
<path fill="#1E7BD8" fill-opacity="0.6980392156862745" stroke="none" d="
M 617.2 237.2
Q 626 228.4 626 216
L 626 191.3 47.05 191.3 47.05 216
Q 47.05 228.4 55.85 237.2 64.65 246 77.05 246
L 596 246
Q 608.4 246 617.2 237.2 Z"/>

<path fill="#3399FF" fill-opacity="0.6980392156862745" stroke="none" d="
M 626 77
Q 626 64.6 617.2 55.8 608.4 47 596 47
L 77.05 47
Q 64.65 47 55.85 55.8 47.05 64.6 47.05 77
L 47.05 191.3 626 191.3 626 77 Z"/>
</g>

<g id="Layer1_0_FILL">
<path fill="#3399FF" stroke="none" d="
M 202.35 27
Q 190.35 15 173.35 15 156.35 15 144.35 27 132.35 39 132.35 56 132.35 73 144.35 85 156.35 97 173.35 97 190.35 97 202.35 85 214.35 73 214.35 56 214.35 39 202.35 27
M 165.05 73.05
Q 180.0392578125 79.6150390625 191.55 68.55 180.0392578125 79.6150390625 165.05 73.05
M 239.85 144.55
Q 212.3 117 173.35 117 134.4 117 106.85 144.55 79.3 172.1 79.3 211.05 79.3 217.2 80 223.1
L 266.7 223.1
Q 267.4 217.2 267.4 211.05 267.4 172.1 239.85 144.55 Z"/>
</g>

<g id="Layer0_0_FILL">
<path fill="#FFFFFF" stroke="none" d="
M 586.25 96.25
Q 586 95.55 585.3 94.85 583.75 93.35 581.05 93.35
L 572.4 93.35
Q 570.05 93.35 568.45 94.85 567.1 96.15 567.1 99.85
L 567.1 112.75 562.95 112.75 562.95 101.1
Q 562.95 97.8 562.45 96.2 562.2 95.5 561.5 94.8 559.95 93.35 557.8 93.35
L 548.35 93.35
Q 547.2 93.35 546 93.95 544.75 94.6 544.05 95.65 543.3 96.75 543.3 100.2
L 543.3 112.75 539.6 112.75 539.6 117.65 543.3 117.65
Q 543.3 124.35 543.05 126.4 542.6 129.3 541.85 130.8 541.1 132.3 539.6 133.3
L 539.6 138.95
Q 541.3 138.25 542.1 137.7 544.4 136.2 546 133.45 548.3 129.45 548.35 121.5 548.35 120.75 548.35 117.65
L 557.8 117.65 557.8 129.8
Q 557.8 132.25 556.95 133 555.95 133.85 553.35 133.85
L 553.35 138.95
Q 556.5 138.95 558 138.4 561.4 137.2 562.5 133.8 562.85 132.85 562.85 130.8
L 562.95 117.65 567.1 117.65
Q 567.1 120.5 567.1 121.65 567 128.85 565.05 131.7 564.45 132.6 563.3 133.3
L 563.3 138.95
Q 565 138.25 565.85 137.7 568.15 136.2 569.7 133.45 572.05 129.45 572.15 121.5 572.15 120.75 572.15 117.65
L 581.55 117.65 581.55 129.8
Q 581.55 131.65 581.2 132.35 580.9 132.85 580.3 133.25 579.35 133.85 577.1 133.85
L 577.1 138.95
Q 577.8 139 578.15 139 583.15 139 585.45 135.55 586.6 133.8 586.6 130.4
L 586.6 117.65 589.15 117.65 589.15 112.75 586.7 112.75 586.7 101.25
Q 586.7 97.85 586.25 96.25
M 572.55 98.8
Q 572.9 98.4 574.4 98.4
L 578.55 98.4
Q 580.9 98.4 581.3 99.05 581.55 99.55 581.55 102.45
L 581.55 112.75 572.15 112.75 572.15 101.7
Q 572.15 99.3 572.55 98.8
M 548.95 98.75
Q 549.4 98.4 551.55 98.4
L 555 98.4
Q 557 98.4 557.4 98.8 557.8 99.2 557.8 102.05
L 557.8 112.75 548.35 112.75 548.35 101.95 548.4 101.6
Q 548.45 101.3 548.45 101.2 548.45 100.95 548.45 100.4 548.45 99.1 548.95 98.75
M 495.4 137.8
L 495.4 132.85 484.6 132.85 484.6 137.8 495.4 137.8
M 495.4 117.15
L 495.4 112.2 484.6 112.2 484.6 117.15 495.4 117.15
M 495.4 98.65
L 495.4 93.75 484.6 93.75 484.6 98.65 495.4 98.65
M 518.45 97
L 518.45 93.15 513.5 93.15 513.5 97 498.25 97 498.25 102 513.5 102 513.5 113.8 499.4 113.8 499.4 118.75 513.5 118.75 513.5 133.35 497.65 133.35 497.65 138.35 534.05 138.35 534.05 133.35 518.45 133.35 518.45 118.75 532.55 118.75 532.55 113.8 518.45 113.8 518.45 102 533.85 102 533.85 97 518.45 97
M 452.9 87.2
L 446.75 87.2 446.75 142 452.9 142 452.9 87.2
M 403.2 124.3
L 404.15 127.45
Q 405.65 132.25 406.7 133.9 408.6 136.95 411.55 138.1 412.95 138.65 415.45 138.85
L 415.45 133.8
Q 413.55 133.75 412.65 133.2 411.25 132.3 410.05 128.7
L 408.55 124.3 403.2 124.3
M 377.15 127.35
L 378.1 124.3 372.75 124.3 370.95 129.6
Q 370.15 132.1 368.85 133.05 367.9 133.7 365.85 133.8
L 365.85 138.85
Q 368.35 138.7 369.75 138.15 372.7 136.95 374.65 133.85 375.6 132.35 377.15 127.35
M 366.35 122
L 380.25 122 380.25 117.2 366.35 117.2 366.35 122
M 401.3 117.2
L 401.3 122 415.25 122 415.25 117.2 401.3 117.2
M 411.6 95
Q 409.6 93.05 405.75 93.05
L 367.2 93.05 367.2 98.05 404.2 98.05
Q 407.05 98.05 407.95 99.15 408.45 99.8 408.55 101.35
L 367.45 101.35 367.45 106.3 408.55 106.3 408.55 109.35 365.7 109.35 365.7 114.3 389.6 114.3 389.6 130.75
Q 389.6 132.6 388.2 133.45 387.55 133.9 385.2 133.9
L 381.25 133.9 381.25 138.85 386.95 138.85
Q 389.1 138.85 390.45 138.35 391.65 138 392.7 136.8 394.6 134.85 394.6 131.65
L 394.6 114.3 415.45 114.3 415.45 109.35 413.55 109.35 413.55 99.35
Q 413.55 96.9 411.6 95
M 320.45 106.95
L 320.45 101.95 310.25 101.95 310.25 106.95 320.45 106.95
M 359.65 138.6
L 359.65 133.75 351.45 133.75 351.45 129.6 346.5 129.6 346.5 133.75 323.1 133.75 323.1 129.6 318.2 129.6 318.2 133.75 310 133.75 310 138.6 359.65 138.6
M 359.7 106.45
L 359.7 101.55 348.3 101.55 348.3 106.45 359.7 106.45
M 339.95 92.95
L 334.45 92.95
Q 335.5 97.15 336.7 100.2 337.9 103.15 339.85 105.95
L 329.65 105.95
Q 331.45 103.55 332.4 102.1 333.5 100.4 333.5 98.75 333.5 96.55 332.15 95.2 330.55 93.65 328.2 93.65
L 310 93.65 310 98.55 327 98.55
Q 328.25 98.55 328.25 99.25 328.25 99.85 326.9 101.7 323.5 106.35 318.6 109.15 315.4 110.95 309.85 112.35
L 309.9 117.35
Q 311.45 116.9 313.15 116.35 312.65 117.3 312.65 118.25
L 312.65 123.7
Q 312.6 126.3 313.9 127.45 315.35 128.75 318.4 128.75
L 351.45 128.75
Q 353.15 128.75 354.05 128.5 354.9 128.2 355.7 127.4 356.95 126.15 356.95 123.8
L 356.95 118.35
Q 356.95 117.6 356.6 116.7 358.15 117.05 359.7 117.3
L 359.7 112.3
Q 348.4 110.15 343.75 102.2 341.7 98.7 339.95 92.95
M 351.9 121.9
Q 351.9 123.15 351.5 123.55 351.2 123.8 349.95 123.8
L 319.2 123.8
Q 317.6 123.8 317.6 122.2
L 317.6 120.1
Q 317.6 118.8 319.3 118.8
L 349.9 118.8
Q 350.75 118.8 351.25 119.05 351.9 119.3 351.9 120.4
L 351.9 121.9
M 344.3 110.85
Q 347 112.9 349.05 113.85
L 319.4 113.85
Q 321.85 112.8 324.65 110.85
L 344.3 110.85
M 347.75 98.25
L 359.35 98.25 359.35 93.3 347.75 93.3 347.75 98.25 Z"/>
</g>

<path id="Layer2_0_1_STROKES" stroke="#FFFFFF" stroke-width="10" stroke-linejoin="round" stroke-linecap="round" fill="none" d="
M 47.05 191.3
L 47.05 77
Q 47.05 64.6 55.85 55.8 64.65 47 77.05 47
L 596 47
Q 608.4 47 617.2 55.8 626 64.6 626 77
L 626 191.3 626 216
Q 626 228.4 617.2 237.2 608.4 246 596 246
L 77.05 246
Q 64.65 246 55.85 237.2 47.05 228.4 47.05 216
L 47.05 191.3 Z"/>

<path id="Layer1_0_1_STROKES" stroke="#FFFFFF" stroke-width="10" stroke-linejoin="round" stroke-linecap="round" fill="none" d="
M 214.35 56
Q 214.35 73 202.35 85 190.35 97 173.35 97 156.35 97 144.35 85 132.35 73 132.35 56 132.35 39 144.35 27 156.35 15 173.35 15 190.35 15 202.35 27 214.35 39 214.35 56 Z
M 165.05 73.05
Q 180.0392578125 79.6150390625 191.55 68.55
M 267.4 211.05
Q 267.4 217.2 266.7 223.1
L 80 223.1
Q 79.3 217.2 79.3 211.05 79.3 172.1 106.85 144.55 134.4 117 173.35 117 212.3 117 239.85 144.55 267.4 172.1 267.4 211.05 Z"/>
</defs>

<g transform="matrix( 1, 0, 0, 1, 0,0) ">
<use xlink:href="#Layer2_0_FILL"/>

<use xlink:href="#Layer2_0_1_STROKES"/>
</g>

<g transform="matrix( 1, 0, 0, 1, 0,0) ">
<use xlink:href="#Layer1_0_FILL"/>

<use xlink:href="#Layer1_0_1_STROKES"/>
</g>

<g transform="matrix( 1, 0, 0, 1, 0,0) ">
<use xlink:href="#Layer0_0_FILL"/>
</g>
</svg>
