
<svg xmlns="http://www.w3.org/2000/svg" version="1.1" xmlns:xlink="http://www.w3.org/1999/xlink" preserveAspectRatio="none" x="0px" y="0px" width="403px" height="403px" viewBox="0 0 403 403">
<defs>
<g id="Layer0_0_FILL">
<path fill="#FF9933" stroke="none" d="
M 128.1 292.35
L 98.35 355.2 253.75 379 221.05 239.5 297.05 222.7 286.85 177.75 80.5 215.1 89 268.6 176.5 249.3 176.5 324.65 128.1 292.35
M 20.2 317
L 72.9 362.85 106.85 293.25 69.45 282.2 20.2 317
M 251.15 164.15
L 242.55 124.2 100.7 144.25 109.4 184.55 251.15 164.15
M 242.55 124.2
L 308.1 175.2 348.85 99.65 130.55 24.05 27 159.95 83.05 190.5 100.7 144.25 139.1 43.55 242.55 124.2
M 336.95 347.6
L 382.8 279.6 269.85 243.95 257.1 290.65 336.95 347.6 Z"/>
</g>
</defs>

<g transform="matrix( 1, 0, 0, 1, 0,0) ">
<use xlink:href="#Layer0_0_FILL"/>
</g>
</svg>
