
<svg xmlns="http://www.w3.org/2000/svg" version="1.1" xmlns:xlink="http://www.w3.org/1999/xlink" preserveAspectRatio="none" x="0px" y="0px" width="630px" height="250px" viewBox="0 0 630 250">
<defs>
<g id="Layer2_0_FILL">
<path fill="#1E7BD8" fill-opacity="0.6980392156862745" stroke="none" d="
M 615.2 235.2
Q 621.25 229.15 623.15 221.35 624 217.85 624 214
L 624 189.3 45.05 189.3 45.05 214
Q 45.05 217.85 45.9 221.35 47.8 229.15 53.85 235.2 62.65 244 75.05 244
L 594 244
Q 606.4 244 615.2 235.2 Z"/>

<path fill="#3399FF" fill-opacity="0.6980392156862745" stroke="none" d="
M 624 75
Q 624 62.6 615.2 53.8 606.4 45 594 45
L 75.05 45
Q 62.65 45 53.85 53.8 45.05 62.6 45.05 75
L 45.05 189.3 624 189.3 624 75 Z"/>
</g>

<g id="Layer1_0_FILL">
<path fill="#3399FF" stroke="none" d="
M 98 63.45
L 7.65 32.85 124.3 219.9 219.65 232 98 63.45
M 292.15 174.4
L 163.6 13.05 98 63.45 219.65 232 292.15 174.4
M 163.6 13.05
L 292.15 174.4 361.15 195 245.25 54.9 163.6 13.05 Z"/>
</g>

<g id="Layer0_0_FILL">
<path fill="#FFFFFF" stroke="none" d="
M 239 163.5
L 233.65 166.8
Q 241.65 167.45 247.55 170.6 244.3 177.25 238.1 181.35 246.45 179.5 250.7 172.55 254.65 175.4 257.4 179.6 256.1 173.65 252.15 169.75 253.5 166.75 254.2 162.95
L 250.9 157.6
Q 250.45 162.85 249 167.25 244.9 164.6 239 163.5
M 170.6 67.25
L 164.1 62.5 158.05 78.5 145.3 76 161.55 87 170.6 67.25
M 434.7 108.15
L 429.25 108.15
Q 427.5 112.7 425.8 114.5 424.35 116 420.8 117.15
L 420.8 122.55
Q 423.3 122.05 425.9 120.9
L 425.9 141.85 430.9 141.85 430.9 116.85
Q 432.05 114.85 432.65 113.7 433.75 111.45 434.7 108.15
M 455.5 136.95
L 455.5 127.5 470.6 127.5 470.6 122.55 435.45 122.55 435.45 127.5 450.55 127.5 450.55 136.95 435.45 136.95 435.45 141.95 470.6 141.95 470.6 136.95 455.5 136.95
M 387.75 127.7
L 387.7 137.1
Q 387.7 139.15 389 140.5 390.25 141.9 392.65 141.9
L 410.85 141.9
Q 412.8 141.9 414 140.7 415.4 139.3 415.4 136.95
L 415.4 127.5
Q 415.4 125.55 414.1 124.25 412.75 123 410.8 123
L 392.25 123
Q 390.4 123 389.1 124.25 387.75 125.55 387.75 127.7
M 394.35 136.95
Q 392.4 136.95 392.4 135.35
L 392.4 129.85
Q 392.4 128.7 392.95 128.25 393.3 127.95 394.45 127.95
L 408.55 127.95
Q 409.8 127.95 410.25 128.45 410.7 128.9 410.7 129.9
L 410.7 135.25
Q 410.7 136.95 408.9 136.95
L 394.35 136.95
M 395.6 98.45
L 396.2 96.25 391.15 96.25
Q 390.1 100.95 387.25 103.9
L 387.25 109.6
Q 391.1 107.8 393.5 103.5
L 408 103.5
Q 409.7 103.5 409.7 104.6 409.7 105.65 408.15 106.95
L 400.95 112.8
Q 399.2 111.85 396.6 109.75
L 389.05 109.75
Q 391.2 111.8 396.05 115.5 392.4 116.25 387.4 116.6
L 387.4 121.6
Q 392.35 121.35 395.5 120.8 398.6 120.2 401.4 118.6 405.65 120.2 408.15 120.65 410.15 121 415.65 121.2
L 415.65 116.35
Q 412.25 116.25 410.9 116.15 408.4 115.9 406.05 115.15
L 412.45 109.6
Q 415.55 106.85 415.55 103.65 415.55 101.65 414.15 100.25 412.35 98.5 409.25 98.5
L 395.6 98.45
M 371.2 96.35
Q 369.05 96.35 367.7 97.7 366.45 98.9 366.45 101.25
L 366.45 112.25
Q 366.45 114.05 367.6 115.35 368.75 116.6 371.05 116.6
L 373.6 116.6 373.6 136.9 372.5 136.9
Q 370.9 136.9 370.9 135.35
L 370.9 119.5 365.9 119.5 365.9 136.7
Q 365.9 141.9 371.05 141.9
L 384.7 141.9 384.7 136.9 378.55 136.9 378.55 127.7 384.45 127.7 384.45 122.75 378.55 122.75 378.55 116.6 380.55 116.6
Q 382.35 116.6 383.6 115.25 384.85 113.95 384.85 111.65
L 384.85 101.2
Q 384.85 98.95 383.5 97.65 382.2 96.35 379.6 96.35
L 371.2 96.35
M 379.9 102.95
L 379.9 110.1
Q 379.9 111.65 378.25 111.65
L 373 111.65
Q 371.4 111.65 371.4 110.1
L 371.4 102.95
Q 371.4 101.35 373.05 101.35
L 378.3 101.35
Q 379.9 101.35 379.9 102.95
M 469.1 97.9
Q 467.45 96.25 463.55 96.25
L 436.55 96.25 436.55 101.25 463.4 101.25
Q 465.6 101.25 465.6 102.15 465.6 102.8 464.35 103.65 459.5 106.85 450.5 109.7
L 436 114.35 436 119.15
Q 444.4 116.7 453.25 113.5 457.8 115.85 461.4 117 464.65 118 470.55 119.1
L 470.55 114.35
Q 467.1 113.6 465.65 113.25 462.95 112.55 459.15 111.1
L 463.25 109.35
Q 467.05 107.7 468.9 105.9 470.65 104.2 470.65 101.7 470.65 99.5 469.1 97.9
M 434.7 96.25
L 429.25 96.25
Q 427.5 100.9 425.75 102.7 424.25 104.2 420.8 105.25
L 420.8 110.7
Q 424.55 109.85 426.45 108.75 429.95 106.7 432.15 102.9 433.4 100.7 434.7 96.25
M 571.25 134.05
L 571.25 98.4 566.25 98.4 566.25 134.05 571.25 134.05
M 497.15 106.7
L 497.15 101.85 489.15 101.85 489.15 96.35 484.1 96.35 484.1 101.85 476.1 101.85 476.1 106.7 484.1 106.7 484.1 116.65 476.1 116.65 475.85 121.65 484.1 121.65
Q 483.8 124.75 483.5 126.25 482.8 129.35 481.25 132 479.2 135.35 475.85 137.15
L 475.85 142.05
Q 479.35 141.5 482.55 138.55 484.45 136.75 486.7 132.85 487.95 135.95 490.65 138.5 493.65 141.3 497.35 142
L 497.35 137.1
Q 496.05 136.4 495.4 136 493.45 134.65 491.85 131.7 489.65 127.65 489.15 121.65
L 496.9 121.65 496.9 116.65 489.15 116.65 489.15 106.7 497.15 106.7
M 517.75 119.75
L 512.75 119.75 512.75 137.25
Q 512.75 142 517.85 142.05
L 525.6 142.05 525.6 137.05 519.55 137.1
Q 518.5 137.1 518.1 136.55 517.75 136.15 517.75 134.9
L 517.75 119.75
M 513.65 105.95
L 508.7 105.95 507.35 121.65
Q 506.25 134.6 498.45 137.05
L 498.45 142
Q 502.25 141.4 504.7 139.5 509.45 135.9 511.1 129.55 511.7 127.3 512.1 122.45
L 513.65 105.95
M 560.05 96.8
L 550.65 96.8 550.65 101.85 560.05 101.85 560.05 96.8
M 540.95 96.4
L 535.2 96.4 538.05 104.75 530.85 104.75 530.85 109.8 539.8 109.8 545.1 125.35 531.25 135 531.25 141.15 547.1 130.15
Q 548.35 132.8 549.15 134 550.95 136.8 553.55 138.7 556.7 141.05 561.35 141.85
L 561.35 137.05
Q 557.7 135.85 555.6 133.8 553.3 131.6 551.35 127.2 552.9 126.1 553.7 125.55 554.35 125.15 554.9 124.7 557.4 122.85 558.6 120.95 560.3 118.2 560.65 115.5
L 555.55 115.5
Q 555 117.55 554 118.8 553.05 119.9 550.65 121.6 550.25 121.85 549.55 122.35
L 545.35 109.8 561.25 109.8 561.25 104.75 543.65 104.75 540.95 96.4
M 519.55 96.4
L 502.9 96.4
Q 501.05 96.4 499.7 97.75 498.95 98.5 498.65 99.4 498.35 100.3 498.35 101.95
L 498.35 128.55 503.25 128.55 503.25 104.2
Q 503.25 102.8 503.3 102.7 503.35 102.2 503.75 101.85 504.15 101.45 505.2 101.45
L 518.5 101.45
Q 519.15 101.45 519.55 102 519.95 102.5 519.95 103.25
L 519.95 128.55 524.95 128.55 524.95 101.45
Q 524.95 99.1 523.4 97.7 521.95 96.4 519.55 96.4
M 580.35 96.3
L 575.35 96.3 575.35 134.05
Q 575.35 135.25 574.55 136.05 573.7 136.95 572.3 136.95
L 566.25 136.95 566.25 142 573.5 142
Q 576.35 141.95 578.35 140 580.35 138.05 580.35 134.8
L 580.35 96.3 Z"/>

<path fill="#3399FF" stroke="none" d="
M 238.3 137.25
Q 234.3 137.25 231.45 140.05 228.65 142.9 228.65 146.9 228.65 150.9 231.45 153.7 234.3 156.55 238.3 156.55 242.3 156.55 245.1 153.7 247.95 150.9 247.95 146.9 247.95 142.9 245.1 140.05 242.3 137.25 238.3 137.25
M 171.55 95.85
Q 169 93.3 165.4 93.3 161.8 93.3 159.2 95.85 156.65 98.45 156.65 102.05 156.65 105.65 159.2 108.2 161.8 110.8 165.4 110.8 169 110.8 171.55 108.2 174.15 105.65 174.15 102.05 174.15 98.45 171.55 95.85 Z"/>
</g>

<g id="Layer0_0_STROKES_1_FILL">
<path fill="#FFFFFF" stroke="none" d="
M 95.3 110.5
Q 94.7365234375 109.625 93.7 109.4 90.5734375 108.7333984375 87.5 108.3 86.4994140625 108.1916015625 85.65 108.8 84.85703125 109.4537109375 84.7 110.45 84.591015625 111.4990234375 85.2 112.3 85.855078125 113.1421875 86.85 113.25 89.7265625 113.66640625 92.65 114.3 93.6798828125 114.5146484375 94.55 113.95 95.426171875 113.384765625 95.65 112.35 95.8658203125 111.3685546875 95.3 110.5
M 107.2 116.05
Q 107.547265625 115.069921875 107.1 114.1 106.6638671875 113.1947265625 105.7 112.85 102.6609375 111.7712890625 99.7 110.95 98.729296875 110.668359375 97.8 111.15 96.9259765625 111.6830078125 96.65 112.65 96.3677734375 113.669921875 96.85 114.55 97.38359375 115.4734375 98.35 115.75 101.138671875 116.528515625 104 117.55 104.979296875 117.8962890625 105.9 117.45 106.8560546875 117.0130859375 107.2 116.05
M 109.65 115.1
Q 108.698046875 115.49453125 108.3 116.45 107.9021484375 117.401171875 108.3 118.35 108.6849609375 119.3015625 109.6 119.7 112.337890625 120.838671875 115.1 122.1 116.0380859375 122.5591796875 117 122.2 117.978125 121.8412109375 118.4 120.9 118.8599609375 119.9642578125 118.5 119 118.1388671875 118.0224609375 117.2 117.55 114.362109375 116.2611328125 111.55 115.1 110.6083984375 114.70234375 109.65 115.1
M 151.85 139.9
Q 150.820703125 140.0419921875 150.15 140.85 149.5423828125 141.6708984375 149.65 142.7 149.792578125 143.72734375 150.6 144.35 152.8998046875 146.1748046875 155.25 148 156.0734375 148.65703125 157.1 148.5 158.1291015625 148.408203125 158.75 147.6 159.407421875 146.779296875 159.25 145.75 159.15546875 144.7212890625 158.35 144.05 155.9998046875 142.2248046875 153.7 140.4 152.8783203125 139.7943359375 151.85 139.9
M 140.25 133.85
Q 139.6982421875 134.7099609375 139.9 135.7 140.0966796875 136.73984375 140.95 137.3 143.4125 138.988671875 145.85 140.8 146.7060546875 141.4203125 147.7 141.25 148.7384765625 141.115234375 149.35 140.25 149.9728515625 139.4439453125 149.8 138.4 149.665234375 137.4140625 148.8 136.8 146.2875 134.911328125 143.75 133.15 142.887109375 132.5986328125 141.85 132.8 140.8599609375 132.99375 140.25 133.85
M 138.7 129.75
Q 136.087109375 128.036328125 133.5 126.45 132.6078125 125.933984375 131.6 126.15 130.6064453125 126.417578125 130.05 127.3 129.5322265625 128.19140625 129.75 129.2 130.0181640625 130.191796875 130.9 130.7 133.412890625 132.2634765625 135.95 133.95 136.8568359375 134.5150390625 137.85 134.3 138.8833984375 134.0896484375 139.45 133.2 140.015625 132.345703125 139.8 131.3 139.587109375 130.3171875 138.7 129.75
M 128.15 123.25
Q 125.449609375 121.7619140625 122.75 120.35 121.8583984375 119.8677734375 120.85 120.15 119.8873046875 120.469921875 119.4 121.35 118.9166015625 122.290234375 119.2 123.25 119.5212890625 124.261328125 120.4 124.75 123.05 126.1376953125 125.7 127.6 126.632421875 128.130859375 127.6 127.85 128.6185546875 127.573046875 129.1 126.65 129.632421875 125.768359375 129.35 124.75 129.072265625 123.7830078125 128.15 123.25
M 70.6 108.7
Q 69.7986328125 108.0919921875 68.75 108.2 65.648828125 108.64375 62.55 109.35 61.5697265625 109.6171875 61 110.5 60.482421875 111.376953125 60.7 112.35 60.96640625 113.3794921875 61.85 113.9 62.727734375 114.4666015625 63.7 114.2 66.5509765625 113.55625 69.4 113.15 70.446875 113.0421875 71.05 112.2 71.708984375 111.39921875 71.55 110.35 71.4431640625 109.35390625 70.6 108.7
M 73.25 108.5
Q 72.5658203125 109.2505859375 72.6 110.25 72.6384765625 111.3109375 73.4 112 74.1501953125 112.7333984375 75.15 112.7 78.07578125 112.604296875 81 112.75 82.0544921875 112.798046875 82.8 112.1 83.59609375 111.4046875 83.65 110.35 83.6990234375 109.34453125 83 108.55 82.3056640625 107.8048828125 81.25 107.75 78.1240234375 107.595703125 75 107.7 73.9896484375 107.7392578125 73.25 108.5
M 258.25 107.35
Q 255.8125 105.346484375 253.35 103.6 252.497265625 103.001953125 251.45 103.15 250.466796875 103.3517578125 249.85 104.2 249.2626953125 105.051953125 249.4 106.05 249.6025390625 107.0939453125 250.45 107.7 252.7875 109.353515625 255.1 111.25 255.9279296875 111.8916015625 256.95 111.75 257.973046875 111.6740234375 258.6 110.85 259.2806640625 110.0732421875 259.15 109.05 259.0728515625 108.0158203125 258.25 107.35
M 267.75 119.55
Q 267.0873046875 120.32265625 267.15 121.35 267.2080078125 122.3822265625 267.95 123.05 270.3392578125 125.1669921875 272.55 126.9 273.3701171875 127.5427734375 274.4 127.4 275.415234375 127.308984375 276.05 126.5 276.69453125 125.680859375 276.55 124.65 276.4578125 123.636328125 275.65 123 273.5607421875 121.3330078125 271.3 119.3 270.5373046875 118.6376953125 269.5 118.7 268.4673828125 118.76796875 267.75 119.55
M 267.05 115.45
Q 266.0494140625 114.4615234375 264.95 113.35 263.95 112.3619140625 262.9 111.4 262.1771484375 110.68203125 261.15 110.7 260.1171875 110.724609375 259.4 111.45 258.6794921875 112.2224609375 258.7 113.25 258.725 114.29296875 259.45 115 260.4498046875 115.950390625 261.4 116.9 262.550390625 118.0384765625 263.6 119.05 264.3736328125 119.7685546875 265.4 119.75 266.4328125 119.725390625 267.15 118.95 267.8703125 118.227734375 267.85 117.2 267.82421875 116.1689453125 267.05 115.45
M 285.95 130.8
Q 285.6578125 129.80546875 284.75 129.3 282.569140625 128.11015625 280.15 126.4 279.2939453125 125.8125 278.25 126 277.253125 126.1775390625 276.65 127 276.0623046875 127.865625 276.25 128.85 276.41796875 129.8966796875 277.25 130.5 279.930859375 132.3896484375 282.35 133.7 283.260546875 134.1935546875 284.25 133.9 285.2462890625 133.608203125 285.75 132.7 286.2453125 131.78984375 285.95 130.8
M 296.15 132.5
Q 295.3216796875 131.8791015625 294.3 132 292.224609375 132.2712890625 289.55 131.45 288.5908203125 131.1548828125 287.65 131.65 286.757421875 132.1375 286.45 133.1 286.1541015625 134.1099609375 286.65 135 287.13671875 135.9416015625 288.1 136.25 291.9751953125 137.428515625 295 136.95 296.0236328125 136.8287109375 296.65 136 297.271875 135.17265625 297.1 134.15 296.9796875 133.12734375 296.15 132.5
M 303.5 124.1
Q 302.547265625 123.803515625 301.6 124.25 300.7 124.7451171875 300.35 125.7 299.47421875 128.481640625 298 130.1 297.315234375 130.8685546875 297.35 131.9 297.3900390625 132.9263671875 298.15 133.6 298.916015625 134.33515625 299.95 134.3 300.9759765625 134.2576171875 301.65 133.5 303.82578125 131.218359375 305.1 127.25 305.44609375 126.2966796875 304.95 125.35 304.50546875 124.4494140625 303.5 124.1
M 205.25 166.4
Q 206.0234375 167.1125 207.05 167.05 210.3564453125 166.8390625 213.45 166.15 214.450390625 165.9107421875 215 165 215.5666015625 164.153125 215.35 163.15 215.1115234375 162.149609375 214.2 161.6 213.3529296875 161.0341796875 212.35 161.25 209.64375 161.8607421875 206.75 162.05 205.7166015625 162.11953125 205 162.9 204.33671875 163.674609375 204.4 164.7 204.46875 165.734375 205.25 166.4
M 225.75 157.8
Q 225.18359375 156.9603515625 224.15 156.75 223.15625 156.53515625 222.25 157.1 220.02734375 158.566796875 217.55 159.55 216.599609375 159.9689453125 216.2 160.9 215.7896484375 161.887109375 216.15 162.85 216.5685546875 163.80078125 217.5 164.2 218.4869140625 164.6099609375 219.45 164.2 222.3728515625 163.0330078125 225 161.3 225.8875 160.7326171875 226.1 159.7 226.315625 158.704296875 225.75 157.8
M 169.95 152.25
Q 169.66953125 151.2818359375 168.75 150.75 166.2994140625 149.3865234375 163.7 147.85 162.8419921875 147.320703125 161.85 147.55 160.8412109375 147.83203125 160.3 148.7 159.769140625 149.6072265625 160 150.6 160.2828125 151.60703125 161.15 152.15 163.8005859375 153.71328125 166.3 155.1 167.2349609375 155.632421875 168.2 155.35 169.2181640625 155.0732421875 169.7 154.15 170.232421875 153.2685546875 169.95 152.25
M 179.1 155.9
Q 176.5119140625 154.78515625 173.85 153.45 172.9376953125 153.0046875 171.95 153.3 170.980859375 153.65078125 170.5 154.55 170.0533203125 155.5115234375 170.35 156.5 170.7015625 157.46796875 171.6 157.9 174.3880859375 159.3146484375 177.1 160.5 178.06171875 160.9099609375 179 160.5 179.985546875 160.1466796875 180.4 159.2 180.8103515625 158.24140625 180.4 157.25 180.043359375 156.3146484375 179.1 155.9
M 192.55 163.2
Q 192.3478515625 164.2380859375 192.9 165.1 193.5080078125 165.954296875 194.5 166.15 197.730078125 166.7857421875 200.7 167 201.745703125 167.06328125 202.5 166.35 203.3171875 165.6998046875 203.4 164.65 203.4642578125 163.65234375 202.75 162.85 202.1015625 162.08359375 201.05 162 198.3697265625 161.8142578125 195.45 161.25 194.4619140625 161.0486328125 193.6 161.6 192.744921875 162.208203125 192.55 163.2
M 184.45 158.1
Q 183.483984375 157.753125 182.55 158.2 181.6076171875 158.635546875 181.25 159.6 180.902734375 160.5658203125 181.35 161.5 181.7857421875 162.441796875 182.75 162.8 185.726953125 163.878515625 188.55 164.7 189.542578125 164.9947265625 190.45 164.5 191.359375 163.9947265625 191.65 163 191.9451171875 162.00859375 191.45 161.1 190.9435546875 160.191015625 189.95 159.9 187.273046875 159.121484375 184.45 158.1
M 240.6 97.2
Q 239.65078125 97.542578125 239.2 98.45 238.7529296875 99.40546875 239.1 100.35 239.445703125 101.3490234375 240.35 101.8 242.973046875 103.0546875 245.45 104.55 246.3580078125 105.0791015625 247.35 104.8 248.3587890625 104.5677734375 248.9 103.65 249.430859375 102.792578125 249.15 101.8 248.9171875 100.7927734375 248 100.25 245.3267578125 98.6453125 242.5 97.3 241.59140625 96.853125 240.6 97.2
M 230.75 92.9
Q 229.777734375 92.6185546875 228.85 93.1 227.9748046875 93.634375 227.7 94.6 227.41796875 95.6216796875 227.9 96.5 228.4349609375 97.424609375 229.4 97.7 232.2240234375 98.4794921875 234.95 99.5 235.9525390625 99.8595703125 236.9 99.4 237.8412109375 98.9783203125 238.2 98 238.5599609375 97.0361328125 238.1 96.1 237.689453125 95.158984375 236.7 94.8 233.77578125 93.720703125 230.75 92.9
M 218.5 90.7
Q 217.4841796875 90.6224609375 216.7 91.3 215.89765625 91.970703125 215.8 93 215.721484375 94.017578125 216.4 94.8 217.06875 95.6013671875 218.1 95.7 220.98671875 95.941796875 223.8 96.4 224.848046875 96.5865234375 225.7 95.95 226.5482421875 95.3830078125 226.7 94.35 226.8873046875 93.3517578125 226.25 92.5 225.683203125 91.6525390625 224.65 91.45 221.61328125 90.958203125 218.5 90.7
M 204.7 95.1
Q 205.517578125 95.7771484375 206.55 95.7 209.4982421875 95.454296875 212.35 95.45 213.3890625 95.453515625 214.1 94.7 214.853515625 93.9890625 214.85 92.95 214.853515625 91.9107421875 214.1 91.15 213.3890625 90.4462890625 212.35 90.45 209.3017578125 90.4455078125 206.15 90.7 205.1228515625 90.78515625 204.45 91.55 203.7720703125 92.3685546875 203.85 93.4 203.9345703125 94.428125 204.7 95.1
M 201.85 91.85
Q 201.03984375 91.26484375 200 91.4 197.0380859375 91.884765625 194 92.55 193.0015625 92.775390625 192.45 93.65 191.88359375 94.5203125 192.1 95.5 192.3248046875 96.536328125 193.2 97.1 194.0822265625 97.665625 195.1 97.45 197.96171875 96.8150390625 200.75 96.35 201.8044921875 96.2125 202.4 95.35 203.0361328125 94.5408203125 202.85 93.5 202.7134765625 92.496484375 201.85 91.85
M 190 94.3
Q 189.119140625 93.8181640625 188.1 94.1 185.2505859375 94.9224609375 182.3 95.95 181.3498046875 96.2935546875 180.9 97.2 180.4529296875 98.1556640625 180.8 99.1 181.142578125 100.0994140625 182.05 100.55 183.0064453125 100.99609375 183.95 100.65 186.7494140625 99.6775390625 189.45 98.9 190.467578125 98.6224609375 190.95 97.7 191.482421875 96.818359375 191.2 95.8 190.923046875 94.831640625 190 94.3 Z"/>
</g>

<path id="Layer2_0_1_STROKES" stroke="#FFFFFF" stroke-width="10" stroke-linejoin="round" stroke-linecap="round" fill="none" d="
M 45.05 189.3
L 45.05 75
Q 45.05 62.6 53.85 53.8 62.65 45 75.05 45
L 594 45
Q 606.4 45 615.2 53.8 624 62.6 624 75
L 624 189.3 624 214
Q 624 217.85 623.15 221.35 621.25 229.15 615.2 235.2 606.4 244 594 244
L 75.05 244
Q 62.65 244 53.85 235.2 47.8 229.15 45.9 221.35 45.05 217.85 45.05 214
L 45.05 189.3 Z"/>

<path id="Layer1_0_1_STROKES" stroke="#FFFFFF" stroke-width="10" stroke-linejoin="round" stroke-linecap="round" fill="none" d="
M 163.6 13.05
L 292.15 174.4 361.15 195 245.25 54.9 163.6 13.05 98 63.45 219.65 232 292.15 174.4
M 219.65 232
L 124.3 219.9 7.65 32.85 98 63.45"/>

<path id="Layer0_0_1_STROKES" stroke="#FFFFFF" stroke-width="5" stroke-linejoin="round" stroke-linecap="round" fill="none" d="
M 174.15 102.05
Q 174.15 105.65 171.55 108.2 169 110.8 165.4 110.8 161.8 110.8 159.2 108.2 156.65 105.65 156.65 102.05 156.65 98.45 159.2 95.85 161.8 93.3 165.4 93.3 169 93.3 171.55 95.85 174.15 98.45 174.15 102.05 Z
M 247.95 146.9
Q 247.95 150.9 245.1 153.7 242.3 156.55 238.3 156.55 234.3 156.55 231.45 153.7 228.65 150.9 228.65 146.9 228.65 142.9 231.45 140.05 234.3 137.25 238.3 137.25 242.3 137.25 245.1 140.05 247.95 142.9 247.95 146.9 Z"/>
</defs>

<g transform="matrix( 1, 0, 0, 1, 0,0) ">
<use xlink:href="#Layer2_0_FILL"/>

<use xlink:href="#Layer2_0_1_STROKES"/>
</g>

<g transform="matrix( 1, 0, 0, 1, 0,0) ">
<use xlink:href="#Layer1_0_FILL"/>

<use xlink:href="#Layer1_0_1_STROKES"/>
</g>

<g transform="matrix( 1, 0, 0, 1, 0,0) ">
<use xlink:href="#Layer0_0_FILL"/>

<use xlink:href="#Layer0_0_1_STROKES"/>

<use xlink:href="#Layer0_0_STROKES_1_FILL"/>
</g>
</svg>
