
<svg xmlns="http://www.w3.org/2000/svg" version="1.1" xmlns:xlink="http://www.w3.org/1999/xlink" preserveAspectRatio="none" x="0px" y="0px" width="630px" height="250px" viewBox="0 0 630 250">
<defs>
<g id="Layer2_0_FILL">
<path fill="#1E7BD8" fill-opacity="0.6980392156862745" stroke="none" d="
M 617.2 237.2
Q 626 228.4 626 216
L 626 191.3 47.05 191.3 47.05 216
Q 47.05 228.4 55.85 237.2 64.65 246 77.05 246
L 596 246
Q 608.4 246 617.2 237.2 Z"/>

<path fill="#3399FF" fill-opacity="0.6980392156862745" stroke="none" d="
M 626 77
Q 626 64.6 617.2 55.8 608.4 47 596 47
L 77.05 47
Q 64.65 47 55.85 55.8 47.05 64.6 47.05 77
L 47.05 191.3 626 191.3 626 77 Z"/>
</g>

<g id="Layer1_0_FILL">
<path fill="#3399FF" stroke="none" d="
M 182.7 132.85
L 182.7 79.65 95.4 106.95 182.7 132.85
M 182.7 132.85
L 224.2 145.15 280.95 105.3 182.7 79.65 182.7 132.85
M 165.85 8.05
L 182.7 79.65 280.95 105.3 267.4 29.85 165.85 8.05
M 291.25 68.2
Q 291.1 41.65 267.4 29.85
L 280.95 105.3
Q 291.35 94.75 291.25 68.2
M 280.95 181.55
L 280.95 105.3 224.2 145.15 224.2 234.95 280.95 181.55
M 224.2 145.15
L 182.7 132.85 95.4 106.95 95.4 189.2 224.2 234.95 224.2 145.15
M 138.2 36.25
Q 112.5 26.55 109.4 7.4 101.2 30.45 80.6 36.25 98.85 40.4 108.15 65.1 117.6 42.05 138.2 36.25 Z"/>
</g>

<g id="Layer0_0_FILL">
<path fill="#FFFFFF" stroke="none" d="
M 474.65 121.3
Q 473.3 120.3 470.95 120.3
L 445.85 120.3 446.7 117.45 441.5 117.45 440.65 120.3 428 120.3 428 125.25 439.15 125.25
Q 438.5 127.3 438 128.3 436.85 130.6 434.95 132.4 431.9 135.2 427.85 135.8
L 427.85 140.7
Q 432.05 140.2 434.95 138.45 439.7 135.65 442.05 131.3 442.75 129.9 444.35 125.25
L 468.9 125.25
Q 470.3 125.25 470.75 125.6 471.3 126 471.3 127.15
L 471.3 133.5
Q 471.3 134.55 471.1 134.95 470.75 135.65 469.35 135.65
L 454.4 135.65 454.4 140.65 471.9 140.65
Q 474 140.65 475.4 138.85 476.3 137.75 476.3 135.3
L 476.3 124.9
Q 476.3 122.6 474.65 121.3
M 386.15 95.05
L 380.6 95.05
Q 379.05 100.95 377.5 104 375.65 107.65 372.6 109.65
L 372.6 116.1
Q 375.55 114.7 377.75 112.85
L 377.75 140.65 382.95 140.65 382.9 105.65
Q 384.9 101.15 386.15 95.05
M 422.4 95.1
L 417.55 95.1
Q 417.25 95.95 416.85 96.2 416.6 96.35 415 96.35
L 388.3 96.35 388.3 101.3 402.2 101.3 402.2 114.45 387.55 114.45 387.55 119.4 402.2 119.4 402.2 135.55 387.85 135.55 387.85 140.45 421.75 140.45 421.75 135.55 407.35 135.55 407.35 119.4 422.25 119.4 422.25 114.45 407.35 114.45 407.35 101.3 415.3 101.3
Q 418.85 101.3 420.75 99.4 422.3 97.85 422.4 95.1
M 442.7 95.1
L 437.3 95.1
Q 435.95 99.5 435.1 100.8 433.5 103.2 428.6 104.15
L 428.6 109.05
Q 432.1 108.8 434.95 107.55
L 445.85 111
Q 440.15 112.85 431.8 112.9
L 427.85 112.9 427.85 117.45 431.5 117.45
Q 436.5 117.45 441.05 116.7 444.5 116.15 453.85 113.5 458.65 115.05 461.85 115.9 468.2 117.45 474.1 117.45
L 477.45 117.45 477.45 112.75 473.6 112.75
Q 469.45 112.75 462.35 111.35 470.35 109.25 472 108.35 474.85 106.8 474.85 103.7 474.85 101.2 472.7 99.45 470.85 97.95 467.1 97.95
L 441.95 97.95 442.7 95.1
M 468.4 104.4
Q 468.1 104.65 466.3 105.2
L 454.05 108.75 439.25 104 439.95 102.95 466.75 102.95
Q 468.8 102.95 468.8 103.7 468.8 104.05 468.4 104.4
M 502 95
L 497.05 95 497.05 131.1 490.2 131.1
Q 488.65 131.1 488.2 130.65 487.85 130.3 487.85 129.35
L 487.85 96.45 482.9 96.45 482.9 131.2
Q 482.9 133.1 483.85 134.3 485.15 135.95 487.7 135.95
L 497.05 135.95 497.05 140.6 502 140.6 502 95
M 514.5 98.2
L 515.25 94.95 510.15 94.95 509.75 96.5
Q 508.25 102.4 507.5 103.75 506.7 105.1 505.25 105.5
L 505.25 110.5
Q 507.1 110.05 508 109.65 509.5 108.95 510.75 107.55 511.9 106.25 513.15 103.15
L 525.2 103.15
Q 524.7 113.75 522.65 119.35 521.85 121.6 519.75 125.25 518.3 123.05 517.75 121.8 517.2 120.6 516.3 117.9 515.3 114.75 514.4 110.05
L 509.5 110.05
Q 510.25 114.25 511.45 118.25 513.1 123.3 516.7 129.05 513.55 132.05 510.8 133.55 509.15 134.5 506.5 135.55
L 506.5 140.65
Q 511.05 139 513.7 137.5 516.35 135.95 519.95 132.8 523.3 136.3 526.5 138.05 528.45 139.15 532.55 140.65
L 532.55 135.55
Q 526.5 133.1 522.9 129.3 526.95 123.4 528.6 116.65 529.85 111.65 530.35 103.15
L 532.55 103.15 532.55 98.2 514.5 98.2
M 585.4 97.6
L 567.3 97.6 567.3 95 562.3 95 562.3 97.6 549.05 97.6 549.6 95 544.05 95
Q 542.2 103.9 538.05 108.1
L 538.05 115.1
Q 539.8 114.1 541.25 112.8
L 541.25 116.9
Q 541.25 118.2 541.35 119 541.55 120.35 542.6 121.4 543.9 122.6 546.1 122.6
L 560.45 122.6 560.45 125.05 539 125.05 539 130.1 542.25 130.1
Q 542.05 133.1 541.7 134.1 541.05 135.8 539.3 135.85
L 539.3 140.8
Q 541.5 140.7 543 139.85 545.85 138.2 546.6 135 546.95 133.55 547.25 130.1
L 560.45 130.1 560.45 140.7 565.4 140.7 565.4 130.1 578.8 130.1
Q 578.9 131.1 579.05 132.75 579.15 135.05 580.05 136.8 581.95 140.45 586.75 140.8
L 586.75 135.95
Q 585.4 135.65 584.85 135.05 584.1 134.1 583.9 131.55 583.85 131.05 583.8 130.1
L 586.65 130.1 586.65 125.05 565.4 125.05 565.4 122.6 585.5 122.6 585.5 117.65 567.3 117.65 567.3 115.4 585.4 115.4 585.4 110.75 567.3 110.75 567.3 108.95 585.4 108.95 585.4 104.35 567.3 104.35 567.3 102.25 585.4 102.25 585.4 97.6
M 562.3 108.95
L 562.3 110.75 546.9 110.75 546.9 108.95 562.3 108.95
M 562.3 102.25
L 562.3 104.35 546.8 104.35 547.6 102.25 562.3 102.25
M 549.3 117.65
Q 547.6 117.65 547.25 117.15 546.85 116.55 546.9 116
L 546.9 115.4 562.3 115.4 562.3 117.65 549.3 117.65 Z"/>
</g>

<path id="Layer2_0_1_STROKES" stroke="#FFFFFF" stroke-width="10" stroke-linejoin="round" stroke-linecap="round" fill="none" d="
M 47.05 191.3
L 47.05 77
Q 47.05 64.6 55.85 55.8 64.65 47 77.05 47
L 596 47
Q 608.4 47 617.2 55.8 626 64.6 626 77
L 626 191.3 626 216
Q 626 228.4 617.2 237.2 608.4 246 596 246
L 77.05 246
Q 64.65 246 55.85 237.2 47.05 228.4 47.05 216
L 47.05 191.3 Z"/>

<path id="Layer1_0_1_STROKES" stroke="#FFFFFF" stroke-width="10" stroke-linejoin="round" stroke-linecap="round" fill="none" d="
M 267.4 29.85
Q 291.1 41.65 291.25 68.2 291.35 94.75 280.95 105.3
L 280.95 181.55 224.2 234.95 95.4 189.2 95.4 106.95 182.7 79.65 165.85 8.05 267.4 29.85 280.95 105.3 182.7 79.65 182.7 132.85 224.2 145.15 280.95 105.3
M 109.4 7.4
Q 101.2 30.45 80.6 36.25 98.85 40.4 108.15 65.1 117.6 42.05 138.2 36.25 112.5 26.55 109.4 7.4 Z
M 224.2 234.95
L 224.2 145.15
M 95.4 106.95
L 182.7 132.85"/>

<path id="Layer0_0_1_STROKES" stroke="#FFFFFF" stroke-width="10" stroke-linejoin="round" stroke-linecap="round" fill="none" d="
M 147.95 140.9
L 162.35 145.55 162.35 172.5 147.95 167.2 147.95 140.9 Z"/>
</defs>

<g transform="matrix( 1, 0, 0, 1, 0,0) ">
<use xlink:href="#Layer2_0_FILL"/>

<use xlink:href="#Layer2_0_1_STROKES"/>
</g>

<g transform="matrix( 1, 0, 0, 1, 0,0) ">
<use xlink:href="#Layer1_0_FILL"/>

<use xlink:href="#Layer1_0_1_STROKES"/>
</g>

<g transform="matrix( 1, 0, 0, 1, 0,0) ">
<use xlink:href="#Layer0_0_FILL"/>

<use xlink:href="#Layer0_0_1_STROKES"/>
</g>
</svg>
