
<svg xmlns="http://www.w3.org/2000/svg" version="1.1" xmlns:xlink="http://www.w3.org/1999/xlink" preserveAspectRatio="none" x="0px" y="0px" width="630px" height="250px" viewBox="0 0 630 250">
<defs>
<g id="Layer2_0_FILL">
<path fill="#1E7BD8" fill-opacity="0.6980392156862745" stroke="none" d="
M 615.2 236.25
Q 624 227.45 624 215.05
L 624 190.35 45.05 190.35 45.05 215.05
Q 45.05 227.45 53.85 236.25 62.65 245.05 75.05 245.05
L 594 245.05
Q 606.4 245.05 615.2 236.25 Z"/>

<path fill="#3399FF" fill-opacity="0.6980392156862745" stroke="none" d="
M 624 76.05
Q 624 63.65 615.2 54.85 606.4 46.05 594 46.05
L 75.05 46.05
Q 62.65 46.05 53.85 54.85 45.05 63.65 45.05 76.05
L 45.05 190.35 624 190.35 624 76.05 Z"/>
</g>

<g id="Layer1_0_FILL">
<path fill="#3399FF" stroke="none" d="
M 193.45 21.4
Q 184.05 12 170.75 12 157.45 12 148 21.4 138.6 30.85 138.6 44.15 138.6 57.45 148 66.85 154.4 73.25 162.55 75.35 166.05 76.2 169.85 76.3
L 174.85 108.4 179.9 140.5 145.1 161.1 128.6 220.1
Q 130.05 238.25 140.15 241.2 153.6 245 161.6 228.6
L 171.6 177.6 195.6 169.6 293.35 239.85
Q 309.2 251.3 319.85 237.45 330.75 223.25 308.3 207.8
L 253.7 170.4
Q 246.4 179.5 234.3 170.5 225.9 164.25 230.55 151
L 233.65 142.15 218.1 103.6 242.1 118.1 233.65 142.15 230.55 151
Q 225.9 164.25 234.3 170.5 246.4 179.5 253.7 170.4 255.25 168.4 256.6 165.6
L 271.1 116
Q 275.8 99.9 264.9 94.95
L 196.4 63.55
Q 202.9 55.2 202.9 44.15 202.9 30.85 193.45 21.4 Z"/>
</g>

<g id="Layer0_0_FILL">
<path fill="#FFFFFF" stroke="none" d="
M 161.5 44.5
Q 160.45 40.7 158.7 38.25 156.85 35.9 155.35 36.3 153.85 36.7 153.55 39.65 153.2 42.65 154.25 46.45 155.25 50.3 157 52.65 158.8 55.05 160.3 54.65 161.8 54.25 162.15 51.25 162.5 48.35 161.5 44.5
M 479.25 142.3
L 479.25 137.45 468.55 137.45 468.55 142.3 479.25 142.3
M 479.25 121.65
L 479.25 116.7 468.55 116.7 468.55 121.65 479.25 121.65
M 372.15 97.45
L 366.55 97.45
Q 365.25 103.75 362.7 107.85 361.15 110.3 358.55 112.05
L 358.55 118.4
Q 360.85 117.6 363.75 115.2
L 363.75 143 369 143 368.95 107.8
Q 370.9 103.7 372.15 97.45
M 392.85 97.3
L 387.7 97.3 387.7 101.6 373.2 101.6 373.2 106.55 387.7 106.55 387.7 129.6 380.15 129.6 381.35 109.2 376.35 109.2 375.15 130.05
Q 374.9 133.85 374.25 135.6 373.65 137.15 371.6 138.35
L 371.6 143.4
Q 374.2 142.65 375.4 141.9 376.75 141.05 377.75 139.6 378.85 137.9 379.55 134.65
L 387.7 134.65 387.7 143 392.85 143 392.85 134.65 400.5 134.65
Q 401.2 138.95 404 141.15 405.4 142.3 408.5 143.15
L 408.5 138.15
Q 406.4 137.15 405.5 134.9 404.7 132.95 404.55 126.05
L 404.2 109 399.15 109 399.8 129.6 392.85 129.6 392.85 106.55 407.75 106.55 407.75 101.6 392.85 101.6 392.85 97.3
M 479.25 98.25
L 468.55 98.25 468.55 103.2 479.25 103.2 479.25 98.25
M 436.1 97.4
L 430.85 97.4 429.85 101.25 414.8 101.25 414.8 106.2 428.5 106.2 422.4 128.35
Q 421.3 132.4 419.45 134.9 417.2 137.85 413.4 137.9
L 413.35 142.95
Q 416.1 142.75 417.65 142.2 421.1 141 423.5 137.5 426.1 133.7 427.7 127.9
L 433.65 106.2 454.6 106.2
Q 456.3 106.2 457.3 107.2 458.05 107.95 458.05 110.2
L 458.05 134.3
Q 458.05 137.9 454.8 137.9
L 438.75 137.9 438.75 142.95 455.85 142.95
Q 459.45 142.95 461.55 140.4 463.05 138.65 463.05 135.5
L 463.05 108.2
Q 463.05 103.7 459.15 101.85 457.8 101.25 455.15 101.25
L 435 101.25 436.1 97.4
M 505.5 99
L 505.5 134.55 510.2 134.55 510.2 99 505.5 99
M 495 109.65
L 489.95 109.65 489.95 126.1
Q 489.95 127.8 489.7 129.1 489.35 131.35 487.9 133.3 486.05 135.8 481.85 138.3
L 481.85 142.9
Q 485.9 141.75 488.45 139.8 490.45 138.35 492.55 135.2 494.8 138.5 496.8 140 499.55 142 503.1 142.85
L 503.1 138.35
Q 499.85 136.6 497.7 134.3 494.95 131.35 494.95 126.65
L 495 109.65
M 530.35 109.1
Q 527.95 109.1 527.1 109.6 526.25 110.1 525.45 111.2 524.75 112.2 524.75 115.5
L 524.75 125.65
Q 524.75 127.45 526.1 128.85 527.35 130.15 529.6 130.15
L 533.45 130.15 533.35 132 523.5 132 523.5 136.2 531.7 136.2
Q 530.15 137.15 529 137.55 527.3 138.05 523.5 138.3
L 523.5 142.9
Q 531.35 142.5 534.5 140.55 537 138.95 538.05 136.2
L 560.4 136.2 560.4 142.9 565.35 142.9 565.35 136.2 573.25 136.2 573.25 132 565.35 132 565.35 130.15 566.65 130.15
Q 569.85 130.15 571.25 128.1 571.95 127.05 571.95 124.5
L 571.95 113.5
Q 571.95 111.2 569.8 109.7 568.95 109.1 566.1 109.1
L 530.35 109.1
M 564 113.2
Q 565.7 113.2 566.05 113.5 566.5 113.75 566.7 114.1 566.9 114.4 566.9 114.95
L 529.85 114.95
Q 529.9 114 530.35 113.65 530.9 113.2 533.1 113.2
L 564 113.2
M 566.9 118.5
L 566.9 120.35 529.85 120.35 529.85 118.5 566.9 118.5
M 532.95 126
Q 530.95 126 530.45 125.7 529.8 125.4 529.8 124.3 529.8 124.25 529.85 124
L 566.9 124
Q 566.85 125.1 566.4 125.5 566.05 125.85 565.65 125.95 565.25 126 563.8 126
L 532.95 126
M 538.6 132
L 538.6 130.15 560.4 130.15 560.4 132 538.6 132
M 557.2 97.15
L 552 97.15
Q 551.75 100.85 550.85 102.25 550.25 103.15 548.6 103.55
L 548.6 108.55
Q 551.6 108.2 553.25 107.15 554.75 106.15 555.8 103.85
L 561.15 103.85 561.15 108.55 566.1 108.55 566.1 103.85 573.25 103.85 573.25 99.05 557 99.05 557.2 97.15
M 532.15 97.15
L 526.95 97.15
Q 526.6 100.9 525.7 102.35 525.1 103.2 523.5 103.55
L 523.5 108.55
Q 526.8 108.1 528.2 107.15 529.4 106.35 530.8 103.85
L 536.15 103.85 536.15 108.55 541.1 108.55 541.1 103.85 548.1 103.85 548.1 99.05 531.9 99.05 532.15 97.15
M 518.1 97.5
L 513.1 97.5 513.1 133.95
Q 513.1 136.05 512.7 136.8 512.05 137.95 510.15 137.95
L 508.45 137.95 508.45 142.9 510.4 142.9
Q 518.1 142.9 518.1 135.05
L 518.1 97.5
M 496.05 97.7
L 488.95 97.7
Q 485.4 97.7 483.9 99.25 482.45 100.7 482.45 103.75
L 482.4 130.85 487.05 130.85 487.05 105.05
Q 487.05 102.65 489.65 102.6
L 495.35 102.55
Q 497.85 102.55 497.85 105.05
L 497.85 130.85 502.5 130.85 502.5 103.65
Q 502.5 97.7 496.05 97.7 Z"/>
</g>

<path id="Layer2_0_1_STROKES" stroke="#FFFFFF" stroke-width="10" stroke-linejoin="round" stroke-linecap="round" fill="none" d="
M 45.05 190.35
L 45.05 76.05
Q 45.05 63.65 53.85 54.85 62.65 46.05 75.05 46.05
L 594 46.05
Q 606.4 46.05 615.2 54.85 624 63.65 624 76.05
L 624 190.35 624 215.05
Q 624 227.45 615.2 236.25 606.4 245.05 594 245.05
L 75.05 245.05
Q 62.65 245.05 53.85 236.25 45.05 227.45 45.05 215.05
L 45.05 190.35 Z"/>

<path id="Layer1_0_1_STROKES" stroke="#FFFFFF" stroke-width="10" stroke-linejoin="round" stroke-linecap="round" fill="none" d="
M 162.55 75.35
Q 154.4 73.25 148 66.85 138.6 57.45 138.6 44.15 138.6 30.85 148 21.4 157.45 12 170.75 12 184.05 12 193.45 21.4 202.9 30.85 202.9 44.15 202.9 55.2 196.4 63.55
L 264.9 94.95
Q 275.8 99.9 271.1 116
L 256.6 165.6
Q 255.25 168.4 253.7 170.4
L 308.3 207.8
Q 330.75 223.25 319.85 237.45 309.2 251.3 293.35 239.85
L 195.6 169.6 171.6 177.6 161.6 228.6
Q 153.6 245 140.15 241.2 130.05 238.25 128.6 220.1
L 145.1 161.1 179.9 140.5 174.85 108.4 147.6 139.1 92.05 139.1
Q 74.9 136.95 77.3 124.35 79.65 111.75 95.55 111.1
L 136.1 111.1 162.55 75.35
Q 166.05 76.2 169.85 76.3
L 174.85 108.4
M 233.65 142.15
L 218.1 103.6 242.1 118.1 233.65 142.15 230.55 151
Q 225.9 164.25 234.3 170.5 246.4 179.5 253.7 170.4"/>
</defs>

<g transform="matrix( 1, 0, 0, 1, 0,0) ">
<use xlink:href="#Layer2_0_FILL"/>

<use xlink:href="#Layer2_0_1_STROKES"/>
</g>

<g transform="matrix( 1, 0, 0, 1, 0,0) ">
<use xlink:href="#Layer1_0_FILL"/>

<use xlink:href="#Layer1_0_1_STROKES"/>
</g>

<g transform="matrix( 1, 0, 0, 1, 0,0) ">
<use xlink:href="#Layer0_0_FILL"/>
</g>
</svg>
