
<svg xmlns="http://www.w3.org/2000/svg" version="1.1" xmlns:xlink="http://www.w3.org/1999/xlink" preserveAspectRatio="none" x="0px" y="0px" width="300px" height="300px" viewBox="0 0 300 300">
<defs>
<g id="Layer1_0_FILL">
<path fill="#A36F3E" stroke="none" d="
M 88.65 191.6
Q 85.75 191.6 83.7 193.65 81.6 195.7 81.6 198.6 81.6 201.55 83.7 203.6 85.75 205.65 88.65 205.65
L 131.55 205.65
Q 133.55 198.2 136.75 191.6
L 88.65 191.6
M 173.4 153.55
Q 171.25 151.25 168.15 151.25
L 88.65 151.25
Q 85.75 151.25 83.7 153.3 81.6 155.4 81.6 158.3 81.6 161.2 83.7 163.3 85.75 165.35 88.65 165.35
L 156.35 165.35
Q 164.1 158.4 173.4 153.55
M 186.3 167.35
Q 174.7 172.25 165.75 181.2 156.8 190.15 151.85 201.8 146.75 213.85 146.75 227 146.75 240.15 151.85 252.2 156.8 263.85 165.75 272.8 174.7 281.75 186.3 286.65 198.35 291.75 211.55 291.75 224.45 291.75 236.25 286.85 247.65 282.15 256.6 273.45
L 257.3 272.8
Q 266.25 263.85 271.2 252.2 276.3 240.15 276.3 227 276.3 213.85 271.2 201.8 266.25 190.15 257.25 181.2 248.3 172.25 236.7 167.35 224.65 162.25 211.55 162.25 198.35 162.25 186.3 167.35
M 210.85 190.65
Q 211.55 190.4 212.2 190.65 212.85 190.95 213.15 191.6
L 221.75 211.75 243.6 213.7
Q 244.3 213.75 244.8 214.35 245.25 214.9 245.2 215.6 245.15 216.3 244.6 216.8
L 228.1 231.2 232.95 252.55
Q 233.15 253.25 232.75 253.9 232.35 254.5 231.65 254.65 230.9 254.85 230.3 254.4
L 211.55 243.2 192.7 254.45
Q 192.1 254.85 191.35 254.65 190.65 254.5 190.3 253.9 189.95 253.25 190.1 252.55
L 194.95 231.2 178.45 216.8
Q 177.9 216.3 177.85 215.6 177.8 214.85 178.3 214.3 178.75 213.8 179.55 213.75
L 201.3 211.75 209.9 191.6
Q 210.2 190.95 210.85 190.65
M 172.6 125.05
Q 175.5 125.05 177.6 122.95 179.65 120.9 179.65 117.95 179.65 115.05 177.6 113 175.5 110.9 172.6 110.9
L 88.65 110.9
Q 85.75 110.9 83.7 113 81.6 115.05 81.6 117.95 81.6 120.9 83.7 122.95 85.75 125.05 88.65 125.05
L 172.6 125.05
M 165.55 6.95
Q 164.1 6.2 162.4 6.2
L 65.4 6.2
Q 58.35 6.2 51.8 9 45.5 11.7 40.65 16.55 35.8 21.4 33.15 27.7 30.35 34.2 30.35 41.25
L 30.35 228.9
Q 30.35 236.05 33.15 242.55 35.8 248.85 40.65 253.7 45.5 258.55 51.8 261.2 58.3 263.95 65.4 263.95
L 137.5 263.95
Q 134.2 257.35 132 249.9
L 65.4 249.9
Q 61.2 249.9 57.3 248.25 53.55 246.65 50.65 243.75 47.7 240.8 46.1 237.05 44.45 233.15 44.45 228.9
L 44.45 41.25
Q 44.45 37.05 46.1 33.1 47.7 29.35 50.6 26.45 53.5 23.55 57.25 21.95 61.15 20.3 65.4 20.3
L 151.85 20.3 151.9 58.65
Q 153.15 75.55 164.25 85 175.2 94.35 193.75 94.65
L 216.8 94.65 216.8 144.4
Q 223.9 144.85 230.9 146.55
L 230.9 79.75
Q 230.9 77 229 75
L 168 9
Q 167 7.7 165.55 6.95
M 193.9 80.6
Q 180.45 80.35 173.4 74.3 166.75 68.65 165.95 57.65
L 165.95 27.45 215 80.55 193.9 80.6 Z"/>
</g>
</defs>

<g transform="matrix( 1, 0, 0, 1, 0,0) ">
<use xlink:href="#Layer1_0_FILL"/>
</g>
</svg>
