
<svg xmlns="http://www.w3.org/2000/svg" version="1.1" xmlns:xlink="http://www.w3.org/1999/xlink" preserveAspectRatio="none" x="0px" y="0px" width="300px" height="300px" viewBox="0 0 300 300">
<defs>
<g id="Layer0_0_FILL">
<path fill="#A36F3E" stroke="none" d="
M 231 180.6
Q 217.6 180.6 205.75 186.4 191.65 193.55 183.15 206.95 174.5 220.7 174.5 237 174.5 253.65 183.35 267.5 192.1 280.95 206.5 287.95 218.1 293.5 231 293.5 242.45 293.5 252.95 289.05 263.1 284.8 270.9 277 278.75 269.2 282.95 258.95 287.5 248.5 287.5 237 287.5 225.6 282.95 215 278.75 204.9 270.9 197.1 263.1 189.25 252.95 185 242.45 180.6 231 180.6
M 248.35 226.25
Q 252.8 226.25 256 229.45 259.2 232.55 259.2 237 259.2 241.5 256 244.6 252.8 247.75 248.35 247.75
L 241.75 247.75 241.75 254.45
Q 241.75 258.9 238.65 262.05 235.4 265.3 231 265.3 226.5 265.3 223.4 262.05 220.2 258.9 220.2 254.45
L 220.2 247.75 213.5 247.75
Q 209.05 247.75 205.9 244.6 202.75 241.5 202.75 237 202.75 232.55 205.9 229.45 209.05 226.25 213.5 226.25
L 220.2 226.25 220.2 219.6
Q 220.2 215.15 223.4 211.95 226.5 208.8 231 208.8 235.4 208.8 238.65 211.95 241.75 215.15 241.75 219.6
L 241.75 226.25 248.35 226.25
M 164.95 195.45
Q 174.8 179.9 190.4 170.35 184.45 165.85 177.45 162.15 172.5 159.6 167.25 157.55 155.55 164.65 142.75 168.25 129.8 172 116.4 172 103.1 172 90.15 168.25 77.35 164.65 65.6 157.55 60.35 159.6 55.3 162.15 44.65 167.8 36.5 175.55 28.05 183.5 23.3 192.85 18.4 202.55 17.15 214.7 16.1 224.8 17.6 237.3 21.45 269.7 27.75 293.5
L 177.15 293.5
Q 170.2 286.9 165.25 279.1 159.2 269.7 156.1 258.95 152.95 248.25 152.95 237 152.95 225.9 156 215.4 159.1 204.8 164.95 195.45
M 169.05 85.95
Q 173.45 73.95 173.45 62.3 173.45 50.95 169.05 40.7 164.65 30.55 156.5 22.9 148.55 15.5 138.2 11.5 127.85 7.6 116.4 7.6 105 7.6 94.7 11.5 84.35 15.5 76.4 22.9 68.2 30.55 63.85 40.7 59.45 50.95 59.45 62.3 59.45 73.95 63.85 85.95 68.25 97.85 75.9 107.65 83.9 117.8 94 123.5 104.85 129.65 116.4 129.65 128 129.65 138.9 123.5 149 117.8 156.95 107.65 164.65 97.85 169.05 85.95 Z"/>
</g>
</defs>

<g transform="matrix( 1, 0, 0, 1, 0,0) ">
<use xlink:href="#Layer0_0_FILL"/>
</g>
</svg>
